<svg width="87" height="112" viewBox="0 0 87 112" fill="none" xmlns="http://www.w3.org/2000/svg">
<path fill-rule="evenodd" clip-rule="evenodd" d="M-0.00748134 19.5566H0.00748134C1.66085 19.5566 3 18.2126 3 16.5566C3 14.9006 1.66085 13.5566 0.00748134 13.5566H-0.00748134C-1.65935 13.5566 -3 14.9006 -3 16.5566C-3 18.2126 -1.65935 19.5566 -0.00748134 19.5566Z" fill="#130D3A"/>
<path fill-rule="evenodd" clip-rule="evenodd" d="M17 19.5566C17.789 19.5566 18.563 19.2371 19.121 18.6776C19.6805 18.1196 20 17.3471 20 16.5566C20 15.7661 19.6805 14.9936 19.121 14.4356C18.563 13.8761 17.789 13.5566 17 13.5566C16.2095 13.5566 15.437 13.8761 14.8775 14.4356C14.3195 14.9936 14 15.7661 14 16.5566C14 17.3471 14.3195 18.1196 14.8775 18.6776C15.437 19.2371 16.2095 19.5566 17 19.5566Z" fill="#130D3A"/>
<path fill-rule="evenodd" clip-rule="evenodd" d="M34 19.5566C34.7905 19.5566 35.563 19.2371 36.1225 18.6776C36.6805 18.1196 37 17.3471 37 16.5566C37 15.7661 36.6805 14.9936 36.1225 14.4356C35.563 13.8761 34.7905 13.5566 34 13.5566C33.211 13.5566 32.437 13.8761 31.879 14.4356C31.3195 14.9936 31 15.7661 31 16.5566C31 17.3471 31.3195 18.1196 31.879 18.6776C32.437 19.2371 33.211 19.5566 34 19.5566Z" fill="#130D3A"/>
<path fill-rule="evenodd" clip-rule="evenodd" d="M66.9925 19.5566H67.0075C68.6608 19.5566 70 18.2126 70 16.5566C70 14.9006 68.6608 13.5566 67.0075 13.5566H66.9925C65.3406 13.5566 64 14.9006 64 16.5566C64 18.2126 65.3406 19.5566 66.9925 19.5566Z" fill="#130D3A"/>
<path fill-rule="evenodd" clip-rule="evenodd" d="M49.9925 19.5566H50.0075C51.6594 19.5566 53 18.2126 53 16.5566C53 14.9006 51.6594 13.5566 50.0075 13.5566H49.9925C48.3406 13.5566 47 14.9006 47 16.5566C47 18.2126 48.3406 19.5566 49.9925 19.5566Z" fill="#130D3A"/>
<mask id="mask0_190_3412" style="mask-type:luminance" maskUnits="userSpaceOnUse" x="80" y="13" width="7" height="7">
<path fill-rule="evenodd" clip-rule="evenodd" d="M80.3008 13.3447H86.7005V19.7447H80.3008V13.3447Z" fill="white"/>
</mask>
<g mask="url(#mask0_190_3412)">
<path fill-rule="evenodd" clip-rule="evenodd" d="M83.5008 19.7447C84.3424 19.7447 85.168 19.4039 85.7632 18.8071C86.36 18.2119 86.7008 17.3879 86.7008 16.5447C86.7008 15.7015 86.36 14.8775 85.7632 14.2823C85.168 13.6855 84.3424 13.3447 83.5008 13.3447C82.6576 13.3447 81.8336 13.6855 81.2368 14.2823C80.6416 14.8775 80.3008 15.7015 80.3008 16.5447C80.3008 17.3879 80.6416 18.2119 81.2368 18.8071C81.8336 19.4039 82.6576 19.7447 83.5008 19.7447Z" fill="#130D3A"/>
</g>
<path fill-rule="evenodd" clip-rule="evenodd" d="M-0.00748134 6.55664H0.00748134C1.66085 6.55664 3 5.21264 3 3.55664C3 1.90064 1.66085 0.556641 0.00748134 0.556641H-0.00748134C-1.65935 0.556641 -3 1.90064 -3 3.55664C-3 5.21264 -1.65935 6.55664 -0.00748134 6.55664Z" fill="#130D3A"/>
<path fill-rule="evenodd" clip-rule="evenodd" d="M17 6.55664C17.789 6.55664 18.563 6.23714 19.121 5.67764C19.6805 5.11964 20 4.34564 20 3.55664C20 2.76614 19.6805 1.99364 19.121 1.43414C18.563 0.876141 17.789 0.556641 17 0.556641C16.2095 0.556641 15.437 0.876141 14.8775 1.43414C14.3195 1.99364 14 2.76614 14 3.55664C14 4.34564 14.3195 5.11964 14.8775 5.67764C15.437 6.23714 16.2095 6.55664 17 6.55664Z" fill="#130D3A"/>
<path fill-rule="evenodd" clip-rule="evenodd" d="M34 6.55664C34.7905 6.55664 35.563 6.23714 36.1225 5.67764C36.6805 5.11964 37 4.34564 37 3.55664C37 2.76614 36.6805 1.99364 36.1225 1.43414C35.563 0.876141 34.7905 0.556641 34 0.556641C33.211 0.556641 32.437 0.876141 31.879 1.43414C31.3195 1.99364 31 2.76614 31 3.55664C31 4.34564 31.3195 5.11964 31.879 5.67764C32.437 6.23714 33.211 6.55664 34 6.55664Z" fill="#130D3A"/>
<path fill-rule="evenodd" clip-rule="evenodd" d="M66.9925 6.55664H67.0075C68.6608 6.55664 70 5.21264 70 3.55664C70 1.90064 68.6608 0.556641 67.0075 0.556641H66.9925C65.3406 0.556641 64 1.90064 64 3.55664C64 5.21264 65.3406 6.55664 66.9925 6.55664Z" fill="#130D3A"/>
<path fill-rule="evenodd" clip-rule="evenodd" d="M49.9925 6.55664H50.0075C51.6594 6.55664 53 5.21264 53 3.55664C53 1.90064 51.6594 0.556641 50.0075 0.556641H49.9925C48.3406 0.556641 47 1.90064 47 3.55664C47 5.21264 48.3406 6.55664 49.9925 6.55664Z" fill="#130D3A"/>
<mask id="mask1_190_3412" style="mask-type:luminance" maskUnits="userSpaceOnUse" x="80" y="0" width="7" height="7">
<path fill-rule="evenodd" clip-rule="evenodd" d="M80.3008 0H86.7005V6.4H80.3008V0Z" fill="white"/>
</mask>
<g mask="url(#mask1_190_3412)">
<path fill-rule="evenodd" clip-rule="evenodd" d="M83.5008 6.4C84.3424 6.4 85.168 6.0592 85.7632 5.4624C86.36 4.8672 86.7008 4.0416 86.7008 3.2C86.7008 2.3568 86.36 1.5328 85.7632 0.936C85.168 0.3408 84.3424 0 83.5008 0C82.6576 0 81.8336 0.3408 81.2368 0.936C80.6416 1.5328 80.3008 2.3568 80.3008 3.2C80.3008 4.0416 80.6416 4.8672 81.2368 5.4624C81.8336 6.0592 82.6576 6.4 83.5008 6.4Z" fill="#130D3A"/>
</g>
<path fill-rule="evenodd" clip-rule="evenodd" d="M-0.00748134 32.5566H0.00748134C1.66085 32.5566 3 31.2126 3 29.5566C3 27.9006 1.66085 26.5566 0.00748134 26.5566H-0.00748134C-1.65935 26.5566 -3 27.9006 -3 29.5566C-3 31.2126 -1.65935 32.5566 -0.00748134 32.5566Z" fill="#130D3A"/>
<path fill-rule="evenodd" clip-rule="evenodd" d="M17 32.5566C17.789 32.5566 18.563 32.2371 19.121 31.6776C19.6805 31.1196 20 30.3471 20 29.5566C20 28.7676 19.6805 27.9936 19.121 27.4356C18.563 26.8761 17.789 26.5566 17 26.5566C16.2095 26.5566 15.437 26.8761 14.8775 27.4356C14.3195 27.9936 14 28.7676 14 29.5566C14 30.3471 14.3195 31.1196 14.8775 31.6776C15.437 32.2371 16.2095 32.5566 17 32.5566Z" fill="#130D3A"/>
<path fill-rule="evenodd" clip-rule="evenodd" d="M34 32.5566C34.7905 32.5566 35.563 32.2371 36.1225 31.6776C36.6805 31.1196 37 30.3471 37 29.5566C37 28.7676 36.6805 27.9936 36.1225 27.4356C35.563 26.8761 34.7905 26.5566 34 26.5566C33.211 26.5566 32.437 26.8761 31.879 27.4356C31.3195 27.9936 31 28.7676 31 29.5566C31 30.3471 31.3195 31.1196 31.879 31.6776C32.437 32.2371 33.211 32.5566 34 32.5566Z" fill="#130D3A"/>
<path fill-rule="evenodd" clip-rule="evenodd" d="M66.9925 32.5566H67.0075C68.6608 32.5566 70 31.2126 70 29.5566C70 27.9006 68.6608 26.5566 67.0075 26.5566H66.9925C65.3406 26.5566 64 27.9006 64 29.5566C64 31.2126 65.3406 32.5566 66.9925 32.5566Z" fill="#130D3A"/>
<path fill-rule="evenodd" clip-rule="evenodd" d="M49.9925 32.5566H50.0075C51.6594 32.5566 53 31.2126 53 29.5566C53 27.9006 51.6594 26.5566 50.0075 26.5566H49.9925C48.3406 26.5566 47 27.9006 47 29.5566C47 31.2126 48.3406 32.5566 49.9925 32.5566Z" fill="#130D3A"/>
<mask id="mask2_190_3412" style="mask-type:luminance" maskUnits="userSpaceOnUse" x="80" y="26" width="7" height="8">
<path fill-rule="evenodd" clip-rule="evenodd" d="M80.3008 26.6895H86.7005V33.0895H80.3008V26.6895Z" fill="white"/>
</mask>
<g mask="url(#mask2_190_3412)">
<path fill-rule="evenodd" clip-rule="evenodd" d="M83.5008 33.0895C84.3424 33.0895 85.168 32.7487 85.7632 32.1519C86.36 31.5567 86.7008 30.7327 86.7008 29.8895C86.7008 29.0479 86.36 28.2223 85.7632 27.6271C85.168 27.0303 84.3424 26.6895 83.5008 26.6895C82.6576 26.6895 81.8336 27.0303 81.2368 27.6271C80.6416 28.2223 80.3008 29.0479 80.3008 29.8895C80.3008 30.7327 80.6416 31.5567 81.2368 32.1519C81.8336 32.7487 82.6576 33.0895 83.5008 33.0895Z" fill="#130D3A"/>
</g>
<path fill-rule="evenodd" clip-rule="evenodd" d="M-0.00748134 45.5566H0.00748134C1.66085 45.5566 3 44.2126 3 42.5566C3 40.9006 1.66085 39.5566 0.00748134 39.5566H-0.00748134C-1.65935 39.5566 -3 40.9006 -3 42.5566C-3 44.2126 -1.65935 45.5566 -0.00748134 45.5566Z" fill="#130D3A"/>
<path fill-rule="evenodd" clip-rule="evenodd" d="M17 45.5566C17.789 45.5566 18.563 45.2371 19.121 44.6776C19.6805 44.1196 20 43.3471 20 42.5566C20 41.7661 19.6805 40.9936 19.121 40.4356C18.563 39.8761 17.789 39.5566 17 39.5566C16.2095 39.5566 15.437 39.8761 14.8775 40.4356C14.3195 40.9936 14 41.7661 14 42.5566C14 43.3471 14.3195 44.1196 14.8775 44.6776C15.437 45.2371 16.2095 45.5566 17 45.5566Z" fill="#130D3A"/>
<path fill-rule="evenodd" clip-rule="evenodd" d="M34 45.5566C34.7905 45.5566 35.563 45.2371 36.1225 44.6776C36.6805 44.1196 37 43.3471 37 42.5566C37 41.7661 36.6805 40.9936 36.1225 40.4356C35.563 39.8761 34.7905 39.5566 34 39.5566C33.211 39.5566 32.437 39.8761 31.879 40.4356C31.3195 40.9936 31 41.7661 31 42.5566C31 43.3471 31.3195 44.1196 31.879 44.6776C32.437 45.2371 33.211 45.5566 34 45.5566Z" fill="#130D3A"/>
<path fill-rule="evenodd" clip-rule="evenodd" d="M66.9925 45.5566H67.0075C68.6608 45.5566 70 44.2126 70 42.5566C70 40.9006 68.6608 39.5566 67.0075 39.5566H66.9925C65.3406 39.5566 64 40.9006 64 42.5566C64 44.2126 65.3406 45.5566 66.9925 45.5566Z" fill="#130D3A"/>
<path fill-rule="evenodd" clip-rule="evenodd" d="M49.9925 45.5566H50.0075C51.6594 45.5566 53 44.2126 53 42.5566C53 40.9006 51.6594 39.5566 50.0075 39.5566H49.9925C48.3406 39.5566 47 40.9006 47 42.5566C47 44.2126 48.3406 45.5566 49.9925 45.5566Z" fill="#130D3A"/>
<mask id="mask3_190_3412" style="mask-type:luminance" maskUnits="userSpaceOnUse" x="80" y="40" width="7" height="7">
<path fill-rule="evenodd" clip-rule="evenodd" d="M80.3008 40.0332H86.7005V46.4332H80.3008V40.0332Z" fill="white"/>
</mask>
<g mask="url(#mask3_190_3412)">
<path fill-rule="evenodd" clip-rule="evenodd" d="M83.5008 46.4332C84.3424 46.4332 85.168 46.0924 85.7632 45.4956C86.36 44.9004 86.7008 44.0764 86.7008 43.2332C86.7008 42.39 86.36 41.566 85.7632 40.9708C85.168 40.374 84.3424 40.0332 83.5008 40.0332C82.6576 40.0332 81.8336 40.374 81.2368 40.9708C80.6416 41.566 80.3008 42.39 80.3008 43.2332C80.3008 44.0764 80.6416 44.9004 81.2368 45.4956C81.8336 46.0924 82.6576 46.4332 83.5008 46.4332Z" fill="#130D3A"/>
</g>
<path fill-rule="evenodd" clip-rule="evenodd" d="M-0.00748134 59.5566H0.00748134C1.66085 59.5566 3 58.2126 3 56.5566C3 54.9006 1.66085 53.5566 0.00748134 53.5566H-0.00748134C-1.65935 53.5566 -3 54.9006 -3 56.5566C-3 58.2126 -1.65935 59.5566 -0.00748134 59.5566Z" fill="#130D3A"/>
<path fill-rule="evenodd" clip-rule="evenodd" d="M17 59.5566C17.789 59.5566 18.563 59.2371 19.121 58.6776C19.6805 58.1196 20 57.3471 20 56.5566C20 55.7676 19.6805 54.9936 19.121 54.4356C18.563 53.8761 17.789 53.5566 17 53.5566C16.2095 53.5566 15.437 53.8761 14.8775 54.4356C14.3195 54.9936 14 55.7676 14 56.5566C14 57.3471 14.3195 58.1196 14.8775 58.6776C15.437 59.2371 16.2095 59.5566 17 59.5566Z" fill="#130D3A"/>
<path fill-rule="evenodd" clip-rule="evenodd" d="M34 59.5566C34.7905 59.5566 35.563 59.2371 36.1225 58.6776C36.6805 58.1196 37 57.3471 37 56.5566C37 55.7676 36.6805 54.9936 36.1225 54.4356C35.563 53.8761 34.7905 53.5566 34 53.5566C33.211 53.5566 32.437 53.8761 31.879 54.4356C31.3195 54.9936 31 55.7676 31 56.5566C31 57.3471 31.3195 58.1196 31.879 58.6776C32.437 59.2371 33.211 59.5566 34 59.5566Z" fill="#130D3A"/>
<path fill-rule="evenodd" clip-rule="evenodd" d="M66.9925 59.5566H67.0075C68.6608 59.5566 70 58.2126 70 56.5566C70 54.9006 68.6608 53.5566 67.0075 53.5566H66.9925C65.3406 53.5566 64 54.9006 64 56.5566C64 58.2126 65.3406 59.5566 66.9925 59.5566Z" fill="#130D3A"/>
<path fill-rule="evenodd" clip-rule="evenodd" d="M49.9925 59.5566H50.0075C51.6594 59.5566 53 58.2126 53 56.5566C53 54.9006 51.6594 53.5566 50.0075 53.5566H49.9925C48.3406 53.5566 47 54.9006 47 56.5566C47 58.2126 48.3406 59.5566 49.9925 59.5566Z" fill="#130D3A"/>
<mask id="mask4_190_3412" style="mask-type:luminance" maskUnits="userSpaceOnUse" x="80" y="52" width="7" height="8">
<path fill-rule="evenodd" clip-rule="evenodd" d="M80.3008 52.7783H86.7005V59.1783H80.3008V52.7783Z" fill="white"/>
</mask>
<g mask="url(#mask4_190_3412)">
<path fill-rule="evenodd" clip-rule="evenodd" d="M83.5008 59.1783C84.3424 59.1783 85.168 58.8375 85.7632 58.2407C86.36 57.6455 86.7008 56.8215 86.7008 55.9783C86.7008 55.1367 86.36 54.3111 85.7632 53.7159C85.168 53.1191 84.3424 52.7783 83.5008 52.7783C82.6576 52.7783 81.8336 53.1191 81.2368 53.7159C80.6416 54.3111 80.3008 55.1367 80.3008 55.9783C80.3008 56.8215 80.6416 57.6455 81.2368 58.2407C81.8336 58.8375 82.6576 59.1783 83.5008 59.1783Z" fill="#130D3A"/>
</g>
<path fill-rule="evenodd" clip-rule="evenodd" d="M-0.00748134 72.5566H0.00748134C1.66085 72.5566 3 71.2126 3 69.5566C3 67.9006 1.66085 66.5566 0.00748134 66.5566H-0.00748134C-1.65935 66.5566 -3 67.9006 -3 69.5566C-3 71.2126 -1.65935 72.5566 -0.00748134 72.5566Z" fill="#130D3A"/>
<path fill-rule="evenodd" clip-rule="evenodd" d="M17 72.5566C17.789 72.5566 18.563 72.2371 19.121 71.6791C19.6805 71.1196 20 70.3471 20 69.5566C20 68.7676 19.6805 67.9936 19.121 67.4356C18.563 66.8761 17.789 66.5566 17 66.5566C16.2095 66.5566 15.437 66.8761 14.8775 67.4356C14.3195 67.9936 14 68.7676 14 69.5566C14 70.3471 14.3195 71.1196 14.8775 71.6791C15.437 72.2371 16.2095 72.5566 17 72.5566Z" fill="#130D3A"/>
<path fill-rule="evenodd" clip-rule="evenodd" d="M34 72.5566C34.7905 72.5566 35.563 72.2371 36.1225 71.6791C36.6805 71.1196 37 70.3471 37 69.5566C37 68.7676 36.6805 67.9936 36.1225 67.4356C35.563 66.8761 34.7905 66.5566 34 66.5566C33.211 66.5566 32.437 66.8761 31.879 67.4356C31.3195 67.9936 31 68.7676 31 69.5566C31 70.3471 31.3195 71.1196 31.879 71.6791C32.437 72.2371 33.211 72.5566 34 72.5566Z" fill="#130D3A"/>
<path fill-rule="evenodd" clip-rule="evenodd" d="M66.9925 72.5566H67.0075C68.6608 72.5566 70 71.2126 70 69.5566C70 67.9006 68.6608 66.5566 67.0075 66.5566H66.9925C65.3406 66.5566 64 67.9006 64 69.5566C64 71.2126 65.3406 72.5566 66.9925 72.5566Z" fill="#130D3A"/>
<path fill-rule="evenodd" clip-rule="evenodd" d="M49.9925 72.5566H50.0075C51.6594 72.5566 53 71.2126 53 69.5566C53 67.9006 51.6594 66.5566 50.0075 66.5566H49.9925C48.3406 66.5566 47 67.9006 47 69.5566C47 71.2126 48.3406 72.5566 49.9925 72.5566Z" fill="#130D3A"/>
<mask id="mask5_190_3412" style="mask-type:luminance" maskUnits="userSpaceOnUse" x="80" y="66" width="7" height="7">
<path fill-rule="evenodd" clip-rule="evenodd" d="M80.3008 66.123H86.7005V72.523H80.3008V66.123Z" fill="white"/>
</mask>
<g mask="url(#mask5_190_3412)">
<path fill-rule="evenodd" clip-rule="evenodd" d="M83.5008 72.523C84.3424 72.523 85.168 72.1822 85.7632 71.587C86.36 70.9902 86.7008 70.1662 86.7008 69.323C86.7008 68.4814 86.36 67.6558 85.7632 67.0606C85.168 66.4638 84.3424 66.123 83.5008 66.123C82.6576 66.123 81.8336 66.4638 81.2368 67.0606C80.6416 67.6558 80.3008 68.4814 80.3008 69.323C80.3008 70.1662 80.6416 70.9902 81.2368 71.587C81.8336 72.1822 82.6576 72.523 83.5008 72.523Z" fill="#130D3A"/>
</g>
<path fill-rule="evenodd" clip-rule="evenodd" d="M-0.00748134 85.5566H0.00748134C1.66085 85.5566 3 84.2126 3 82.5566C3 80.9006 1.66085 79.5566 0.00748134 79.5566H-0.00748134C-1.65935 79.5566 -3 80.9006 -3 82.5566C-3 84.2126 -1.65935 85.5566 -0.00748134 85.5566Z" fill="#130D3A"/>
<path fill-rule="evenodd" clip-rule="evenodd" d="M17 85.5566C17.789 85.5566 18.563 85.2371 19.121 84.6776C19.6805 84.1196 20 83.3471 20 82.5566C20 81.7676 19.6805 80.9936 19.121 80.4356C18.563 79.8761 17.789 79.5566 17 79.5566C16.2095 79.5566 15.437 79.8761 14.8775 80.4356C14.3195 80.9936 14 81.7676 14 82.5566C14 83.3471 14.3195 84.1196 14.8775 84.6776C15.437 85.2371 16.2095 85.5566 17 85.5566Z" fill="#130D3A"/>
<path fill-rule="evenodd" clip-rule="evenodd" d="M34 85.5566C34.7905 85.5566 35.563 85.2371 36.1225 84.6776C36.6805 84.1196 37 83.3471 37 82.5566C37 81.7676 36.6805 80.9936 36.1225 80.4356C35.563 79.8761 34.7905 79.5566 34 79.5566C33.211 79.5566 32.437 79.8761 31.879 80.4356C31.3195 80.9936 31 81.7676 31 82.5566C31 83.3471 31.3195 84.1196 31.879 84.6776C32.437 85.2371 33.211 85.5566 34 85.5566Z" fill="#130D3A"/>
<path fill-rule="evenodd" clip-rule="evenodd" d="M66.9925 85.5566H67.0075C68.6608 85.5566 70 84.2126 70 82.5566C70 80.9006 68.6608 79.5566 67.0075 79.5566H66.9925C65.3406 79.5566 64 80.9006 64 82.5566C64 84.2126 65.3406 85.5566 66.9925 85.5566Z" fill="#130D3A"/>
<path fill-rule="evenodd" clip-rule="evenodd" d="M49.9925 85.5566H50.0075C51.6594 85.5566 53 84.2126 53 82.5566C53 80.9006 51.6594 79.5566 50.0075 79.5566H49.9925C48.3406 79.5566 47 80.9006 47 82.5566C47 84.2126 48.3406 85.5566 49.9925 85.5566Z" fill="#130D3A"/>
<mask id="mask6_190_3412" style="mask-type:luminance" maskUnits="userSpaceOnUse" x="80" y="79" width="7" height="7">
<path fill-rule="evenodd" clip-rule="evenodd" d="M80.3008 79.4668H86.7005V85.8668H80.3008V79.4668Z" fill="white"/>
</mask>
<g mask="url(#mask6_190_3412)">
<path fill-rule="evenodd" clip-rule="evenodd" d="M83.5008 85.8668C84.3424 85.8668 85.168 85.526 85.7632 84.9292C86.36 84.334 86.7008 83.51 86.7008 82.6668C86.7008 81.8252 86.36 80.9996 85.7632 80.4044C85.168 79.8076 84.3424 79.4668 83.5008 79.4668C82.6576 79.4668 81.8336 79.8076 81.2368 80.4044C80.6416 80.9996 80.3008 81.8252 80.3008 82.6668C80.3008 83.51 80.6416 84.334 81.2368 84.9292C81.8336 85.526 82.6576 85.8668 83.5008 85.8668Z" fill="#130D3A"/>
</g>
<path fill-rule="evenodd" clip-rule="evenodd" d="M-0.00748134 98.5566H0.00748134C1.66085 98.5566 3 97.2141 3 95.5566C3 93.9006 1.66085 92.5566 0.00748134 92.5566H-0.00748134C-1.65935 92.5566 -3 93.9006 -3 95.5566C-3 97.2141 -1.65935 98.5566 -0.00748134 98.5566Z" fill="#130D3A"/>
<path fill-rule="evenodd" clip-rule="evenodd" d="M17 98.5566C17.789 98.5566 18.563 98.2371 19.121 97.6791C19.6805 97.1196 20 96.3471 20 95.5566C20 94.7676 19.6805 93.9936 19.121 93.4356C18.563 92.8761 17.789 92.5566 17 92.5566C16.2095 92.5566 15.437 92.8761 14.8775 93.4356C14.3195 93.9936 14 94.7676 14 95.5566C14 96.3471 14.3195 97.1196 14.8775 97.6791C15.437 98.2371 16.2095 98.5566 17 98.5566Z" fill="#130D3A"/>
<path fill-rule="evenodd" clip-rule="evenodd" d="M34 98.5566C34.7905 98.5566 35.563 98.2371 36.1225 97.6791C36.6805 97.1196 37 96.3471 37 95.5566C37 94.7676 36.6805 93.9936 36.1225 93.4356C35.563 92.8761 34.7905 92.5566 34 92.5566C33.211 92.5566 32.437 92.8761 31.879 93.4356C31.3195 93.9936 31 94.7676 31 95.5566C31 96.3471 31.3195 97.1196 31.879 97.6791C32.437 98.2371 33.211 98.5566 34 98.5566Z" fill="#130D3A"/>
<path fill-rule="evenodd" clip-rule="evenodd" d="M66.9925 98.5566H67.0075C68.6608 98.5566 70 97.2141 70 95.5566C70 93.9006 68.6608 92.5566 67.0075 92.5566H66.9925C65.3406 92.5566 64 93.9006 64 95.5566C64 97.2141 65.3406 98.5566 66.9925 98.5566Z" fill="#130D3A"/>
<path fill-rule="evenodd" clip-rule="evenodd" d="M49.9925 98.5566H50.0075C51.6594 98.5566 53 97.2141 53 95.5566C53 93.9006 51.6594 92.5566 50.0075 92.5566H49.9925C48.3406 92.5566 47 93.9006 47 95.5566C47 97.2141 48.3406 98.5566 49.9925 98.5566Z" fill="#130D3A"/>
<mask id="mask7_190_3412" style="mask-type:luminance" maskUnits="userSpaceOnUse" x="80" y="92" width="7" height="8">
<path fill-rule="evenodd" clip-rule="evenodd" d="M80.3008 92.8115H86.7005V99.2115H80.3008V92.8115Z" fill="white"/>
</mask>
<g mask="url(#mask7_190_3412)">
<path fill-rule="evenodd" clip-rule="evenodd" d="M83.5008 99.2115C84.3424 99.2115 85.168 98.8707 85.7632 98.2755C86.36 97.6787 86.7008 96.8547 86.7008 96.0115C86.7008 95.1699 86.36 94.3443 85.7632 93.7491C85.168 93.1523 84.3424 92.8115 83.5008 92.8115C82.6576 92.8115 81.8336 93.1523 81.2368 93.7491C80.6416 94.3443 80.3008 95.1699 80.3008 96.0115C80.3008 96.8547 80.6416 97.6787 81.2368 98.2755C81.8336 98.8707 82.6576 99.2115 83.5008 99.2115Z" fill="#130D3A"/>
</g>
<mask id="mask8_190_3412" style="mask-type:luminance" maskUnits="userSpaceOnUse" x="-4" y="105" width="8" height="7">
<path fill-rule="evenodd" clip-rule="evenodd" d="M-3.00781 105.557H3.40819V111.556H-3.00781V105.557Z" fill="white"/>
</mask>
<g mask="url(#mask8_190_3412)">
<path fill-rule="evenodd" clip-rule="evenodd" d="M0.192188 111.557H0.208188C1.97619 111.557 3.40819 110.213 3.40819 108.557C3.40819 106.899 1.97619 105.557 0.208188 105.557H0.192188C-1.57421 105.557 -3.00781 106.899 -3.00781 108.557C-3.00781 110.213 -1.57421 111.557 0.192188 111.557Z" fill="#130D3A"/>
</g>
<mask id="mask9_190_3412" style="mask-type:luminance" maskUnits="userSpaceOnUse" x="13" y="105" width="7" height="7">
<path fill-rule="evenodd" clip-rule="evenodd" d="M13.5 105.557H19.9V111.556H13.5V105.557Z" fill="white"/>
</mask>
<g mask="url(#mask9_190_3412)">
<path fill-rule="evenodd" clip-rule="evenodd" d="M16.7 111.557C17.5416 111.557 18.3672 111.237 18.9624 110.678C19.5592 110.12 19.9 109.346 19.9 108.557C19.9 107.766 19.5592 106.994 18.9624 106.434C18.3672 105.876 17.5416 105.557 16.7 105.557C15.8568 105.557 15.0328 105.876 14.436 106.434C13.8408 106.994 13.5 107.766 13.5 108.557C13.5 109.346 13.8408 110.12 14.436 110.678C15.0328 111.237 15.8568 111.557 16.7 111.557Z" fill="#130D3A"/>
</g>
<mask id="mask10_190_3412" style="mask-type:luminance" maskUnits="userSpaceOnUse" x="30" y="105" width="7" height="7">
<path fill-rule="evenodd" clip-rule="evenodd" d="M30.4023 105.557H36.8023V111.556H30.4023V105.557Z" fill="white"/>
</mask>
<g mask="url(#mask10_190_3412)">
<path fill-rule="evenodd" clip-rule="evenodd" d="M33.6023 111.557C34.4455 111.557 35.2695 111.237 35.8663 110.678C36.4615 110.12 36.8023 109.346 36.8023 108.557C36.8023 107.766 36.4615 106.994 35.8663 106.434C35.2695 105.876 34.4455 105.557 33.6023 105.557C32.7607 105.557 31.9351 105.876 31.3399 106.434C30.7431 106.994 30.4023 107.766 30.4023 108.557C30.4023 109.346 30.7431 110.12 31.3399 110.678C31.9351 111.237 32.7607 111.557 33.6023 111.557Z" fill="#130D3A"/>
</g>
<mask id="mask11_190_3412" style="mask-type:luminance" maskUnits="userSpaceOnUse" x="63" y="105" width="7" height="7">
<path fill-rule="evenodd" clip-rule="evenodd" d="M63.3945 105.557H69.8105V111.556H63.3945V105.557Z" fill="white"/>
</mask>
<g mask="url(#mask11_190_3412)">
<path fill-rule="evenodd" clip-rule="evenodd" d="M66.5945 111.557H66.6105C68.3785 111.557 69.8105 110.213 69.8105 108.557C69.8105 106.899 68.3785 105.557 66.6105 105.557H66.5945C64.8281 105.557 63.3945 106.899 63.3945 108.557C63.3945 110.213 64.8281 111.557 66.5945 111.557Z" fill="#130D3A"/>
</g>
<mask id="mask12_190_3412" style="mask-type:luminance" maskUnits="userSpaceOnUse" x="46" y="105" width="8" height="7">
<path fill-rule="evenodd" clip-rule="evenodd" d="M46.8945 105.557H53.3105V111.556H46.8945V105.557Z" fill="white"/>
</mask>
<g mask="url(#mask12_190_3412)">
<path fill-rule="evenodd" clip-rule="evenodd" d="M50.0945 111.557H50.1105C51.8769 111.557 53.3105 110.213 53.3105 108.557C53.3105 106.899 51.8769 105.557 50.1105 105.557H50.0945C48.3281 105.557 46.8945 106.899 46.8945 108.557C46.8945 110.213 48.3281 111.557 50.0945 111.557Z" fill="#130D3A"/>
</g>
<mask id="mask13_190_3412" style="mask-type:luminance" maskUnits="userSpaceOnUse" x="80" y="105" width="7" height="7">
<path fill-rule="evenodd" clip-rule="evenodd" d="M80.3008 105.557H86.7005V111.556H80.3008V105.557Z" fill="white"/>
</mask>
<g mask="url(#mask13_190_3412)">
<path fill-rule="evenodd" clip-rule="evenodd" d="M83.5008 111.557C84.3424 111.557 85.168 111.237 85.7632 110.678C86.36 110.12 86.7008 109.346 86.7008 108.557C86.7008 107.766 86.36 106.994 85.7632 106.434C85.168 105.876 84.3424 105.557 83.5008 105.557C82.6576 105.557 81.8336 105.876 81.2368 106.434C80.6416 106.994 80.3008 107.766 80.3008 108.557C80.3008 109.346 80.6416 110.12 81.2368 110.678C81.8336 111.237 82.6576 111.557 83.5008 111.557Z" fill="#130D3A"/>
</g>
</svg>
