<svg width="46" height="33" viewBox="0 0 46 33" fill="none" xmlns="http://www.w3.org/2000/svg">
<g clip-path="url(#clip0_550_1551)">
<path d="M44.8479 5.75651C44.5866 4.791 44.077 3.91078 43.3697 3.2035C42.6625 2.49621 41.7823 1.98654 40.8168 1.72524C37.2821 0.76123 23.0562 0.76123 23.0562 0.76123C23.0562 0.76123 8.82953 0.79041 5.29484 1.75442C4.32933 2.01574 3.44911 2.52543 2.74186 3.23275C2.0346 3.94007 1.52498 4.82033 1.26374 5.78587C0.194585 12.0663 -0.220161 21.6363 1.2931 27.6655C1.55436 28.631 2.064 29.5112 2.77125 30.2185C3.47851 30.9258 4.3587 31.4354 5.3242 31.6967C8.85888 32.6607 23.0852 32.6607 23.0852 32.6607C23.0852 32.6607 37.3113 32.6607 40.8458 31.6967C41.8113 31.4355 42.6915 30.9258 43.3988 30.2185C44.1061 29.5112 44.6158 28.631 44.877 27.6655C46.0047 21.3761 46.3522 11.8121 44.8479 5.75651Z" fill="#FF0000"/>
<path d="M18.5273 23.5466L30.3288 16.7111L18.5273 9.87549V23.5466Z" fill="white"/>
</g>
<defs>
<clipPath id="clip0_550_1551">
<rect width="45.5491" height="32.0267" fill="white" transform="translate(0.304688 0.76123)"/>
</clipPath>
</defs>
</svg>
