<svg width="47" height="46" viewBox="0 0 47 46" fill="none" xmlns="http://www.w3.org/2000/svg">
<g clip-path="url(#clip0_550_1548)">
<path d="M46.0882 22.7746C46.0882 10.1966 35.8916 0 23.3136 0C10.7357 0 0.539062 10.1966 0.539062 22.7746C0.539062 34.1419 8.86744 43.564 19.7551 45.2725V29.3578H13.9725V22.7746H19.7551V17.757C19.7551 12.0492 23.1553 8.89631 28.3575 8.89631C30.8492 8.89631 33.4554 9.34113 33.4554 9.34113V14.9458H30.5837C27.7545 14.9458 26.8722 16.7014 26.8722 18.5026V22.7746H33.1885L32.1788 29.3578H26.8722V45.2725C37.7598 43.564 46.0882 34.1421 46.0882 22.7746Z" fill="#1877F2"/>
<path d="M32.179 29.358L33.1887 22.7747H26.8723V18.5027C26.8723 16.7014 27.7546 14.946 30.5839 14.946H33.4556V9.3413C33.4556 9.3413 30.8493 8.89648 28.3575 8.89648C23.1554 8.89648 19.7553 12.0493 19.7553 17.7572V22.7747H13.9727V29.358H19.7553V45.2726C20.9325 45.4571 22.1222 45.5496 23.3138 45.5493C24.5053 45.5497 25.6951 45.4572 26.8723 45.2726V29.358H32.179Z" fill="white"/>
</g>
<defs>
<clipPath id="clip0_550_1548">
<rect width="45.5491" height="45.5491" fill="white" transform="translate(0.539062)"/>
</clipPath>
</defs>
</svg>
