<svg width="47" height="46" viewBox="0 0 47 46" fill="none" xmlns="http://www.w3.org/2000/svg">
<g clip-path="url(#clip0_550_1543)">
<path d="M35.6431 0H11.4451C5.54915 0 0.769531 4.77962 0.769531 10.6756V34.8736C0.769531 40.7695 5.54915 45.5491 11.4451 45.5491H35.6431C41.539 45.5491 46.3187 40.7695 46.3187 34.8736V10.6756C46.3187 4.77962 41.539 0 35.6431 0Z" fill="url(#paint0_radial_550_1543)"/>
<path d="M35.6431 0H11.4451C5.54915 0 0.769531 4.77962 0.769531 10.6756V34.8736C0.769531 40.7695 5.54915 45.5491 11.4451 45.5491H35.6431C41.539 45.5491 46.3187 40.7695 46.3187 34.8736V10.6756C46.3187 4.77962 41.539 0 35.6431 0Z" fill="url(#paint1_radial_550_1543)"/>
<path d="M23.5442 4.98193C18.7121 4.98193 18.1056 5.00311 16.2078 5.0894C14.3136 5.17623 13.0206 5.47603 11.8893 5.91605C10.7189 6.37047 9.7263 6.97844 8.73738 7.96771C7.74758 8.95681 7.1396 9.94946 6.68376 11.1193C6.2425 12.2509 5.94234 13.5445 5.85711 15.4378C5.77224 17.3357 5.75 17.9424 5.75 22.7747C5.75 27.607 5.77135 28.2116 5.85747 30.1094C5.94465 32.0036 6.24446 33.2966 6.68411 34.4278C7.13889 35.5982 7.74687 36.5909 8.73614 37.5798C9.72487 38.5696 10.7175 39.179 11.887 39.6334C13.0192 40.0734 14.3123 40.3733 16.2062 40.4601C18.1041 40.5464 18.7102 40.5676 23.5421 40.5676C28.3748 40.5676 28.9793 40.5464 30.8771 40.4601C32.7713 40.3733 34.0657 40.0734 35.1979 39.6334C36.3677 39.179 37.359 38.5696 38.3475 37.5798C39.3373 36.5909 39.9451 35.5982 40.4011 34.4284C40.8385 33.2966 41.1388 32.0032 41.2278 30.1098C41.313 28.212 41.3353 27.607 41.3353 22.7747C41.3353 17.9424 41.313 17.3361 41.2278 15.4381C41.1388 13.5439 40.8385 12.2511 40.4011 11.1199C39.9451 9.94946 39.3373 8.95681 38.3475 7.96771C37.3579 6.97809 36.3681 6.37011 35.1968 5.91622C34.0625 5.47603 32.7688 5.17605 30.8746 5.0894C28.9767 5.00311 28.3724 4.98193 23.5387 4.98193H23.5442ZM21.9481 8.18834C22.4219 8.18763 22.9505 8.18834 23.5442 8.18834C28.295 8.18834 28.858 8.20542 30.7341 8.29065C32.4688 8.37001 33.4104 8.65985 34.0376 8.90343C34.868 9.22583 35.46 9.6114 36.0823 10.2343C36.7051 10.8571 37.0905 11.4501 37.4138 12.2805C37.6573 12.9068 37.9475 13.8484 38.0265 15.5831C38.1118 17.4588 38.1303 18.0222 38.1303 22.7706C38.1303 27.5191 38.1118 28.0826 38.0265 29.9582C37.9472 31.6929 37.6573 32.6345 37.4138 33.261C37.0914 34.0914 36.7051 34.6826 36.0823 35.305C35.4596 35.9278 34.8683 36.3132 34.0376 36.6357C33.4111 36.8804 32.4688 37.1695 30.7341 37.2489C28.8584 37.3341 28.295 37.3526 23.5442 37.3526C18.7932 37.3526 18.2301 37.3341 16.3546 37.2489C14.6198 37.1688 13.6782 36.879 13.0505 36.6354C12.2203 36.3128 11.6271 35.9274 11.0043 35.3047C10.3816 34.6819 9.99621 34.0903 9.67292 33.2596C9.42934 32.6331 9.13914 31.6915 9.06014 29.9567C8.97491 28.081 8.95783 27.5177 8.95783 22.7662C8.95783 18.0149 8.97491 17.4544 9.06014 15.5787C9.1395 13.8439 9.42934 12.9023 9.67292 12.2751C9.9955 11.4448 10.3816 10.8517 11.0045 10.229C11.6273 9.60624 12.2203 9.22067 13.0507 8.89756C13.6779 8.65291 14.6198 8.36378 16.3546 8.28407C17.996 8.20987 18.632 8.18763 21.9481 8.1839V8.18834ZM33.0419 11.1426C31.8632 11.1426 30.9068 12.0981 30.9068 13.277C30.9068 14.4558 31.8632 15.4122 33.0419 15.4122C34.2207 15.4122 35.1771 14.4558 35.1771 13.277C35.1771 12.0983 34.2207 11.1419 33.0419 11.1419V11.1426ZM23.5442 13.6373C18.4982 13.6373 14.407 17.7286 14.407 22.7747C14.407 27.8209 18.4982 31.9102 23.5442 31.9102C28.5904 31.9102 32.6802 27.8209 32.6802 22.7747C32.6802 17.7288 28.59 13.6373 23.5439 13.6373H23.5442ZM23.5442 16.8437C26.8197 16.8437 29.4752 19.4989 29.4752 22.7747C29.4752 26.0502 26.8197 28.7057 23.5442 28.7057C20.2686 28.7057 17.6134 26.0502 17.6134 22.7747C17.6134 19.4989 20.2686 16.8437 23.5442 16.8437Z" fill="white"/>
</g>
<defs>
<radialGradient id="paint0_radial_550_1543" cx="0" cy="0" r="1" gradientUnits="userSpaceOnUse" gradientTransform="translate(12.8685 49.0573) rotate(-90) scale(45.1426 41.9862)">
<stop stop-color="#FFDD55"/>
<stop offset="0.1" stop-color="#FFDD55"/>
<stop offset="0.5" stop-color="#FF543E"/>
<stop offset="1" stop-color="#C837AB"/>
</radialGradient>
<radialGradient id="paint1_radial_550_1543" cx="0" cy="0" r="1" gradientUnits="userSpaceOnUse" gradientTransform="translate(-6.86013 3.28114) rotate(78.681) scale(20.179 83.1784)">
<stop stop-color="#3771C8"/>
<stop offset="0.128" stop-color="#3771C8"/>
<stop offset="1" stop-color="#6600FF" stop-opacity="0"/>
</radialGradient>
<clipPath id="clip0_550_1543">
<rect width="45.5491" height="45.5491" fill="white" transform="translate(0.769531)"/>
</clipPath>
</defs>
</svg>
