<svg width="46" height="46" viewBox="0 0 46 46" fill="none" xmlns="http://www.w3.org/2000/svg">
<g clip-path="url(#clip0_550_1538)">
<path d="M34.8736 0H10.6756C4.77962 0 0 4.77962 0 10.6756V34.8736C0 40.7695 4.77962 45.5491 10.6756 45.5491H34.8736C40.7695 45.5491 45.5491 40.7695 45.5491 34.8736V10.6756C45.5491 4.77962 40.7695 0 34.8736 0Z" fill="white"/>
<path d="M34.8736 0H10.6756C4.77962 0 0 4.77962 0 10.6756V34.8736C0 40.7695 4.77962 45.5491 10.6756 45.5491H34.8736C40.7695 45.5491 45.5491 40.7695 45.5491 34.8736V10.6756C45.5491 4.77962 40.7695 0 34.8736 0Z" fill="#1D9BF0"/>
<path d="M35.5096 16.2646C35.5292 16.547 35.5292 16.8293 35.5292 17.1144C35.5292 25.7966 28.9196 35.81 16.8336 35.81V35.8046C13.2632 35.8098 9.76672 34.7872 6.76172 32.8591C7.28091 32.9215 7.80259 32.9527 8.32569 32.9539C11.285 32.9563 14.1591 31.9637 16.4863 30.1357C15.1151 30.1098 13.7864 29.6561 12.6857 28.838C11.5851 28.0199 10.7677 26.8783 10.3476 25.5728C11.3321 25.7626 12.3469 25.7239 13.314 25.4597C10.2487 24.8403 8.04332 22.147 8.04332 19.0191V18.9358C8.95714 19.4448 9.97984 19.7268 11.0254 19.7582C8.13833 17.8286 7.24835 13.9877 8.99167 10.9846C10.6413 13.0146 12.6995 14.6748 15.0325 15.8575C17.3656 17.0402 19.9214 17.7188 22.5338 17.8494C22.2733 16.7282 22.3118 15.5582 22.6454 14.4565C22.979 13.3548 23.5959 12.36 24.4346 11.5716C27.0811 9.08385 31.2433 9.21142 33.7311 11.8565C35.2025 11.566 36.6136 11.0265 37.9036 10.2614C37.4131 11.7827 36.3866 13.0742 35.0152 13.8953C36.3177 13.7419 37.5897 13.3932 38.7885 12.861C37.9067 14.1816 36.7963 15.3341 35.5096 16.2646Z" fill="white"/>
</g>
<defs>
<clipPath id="clip0_550_1538">
<rect width="45.5491" height="45.5491" fill="white"/>
</clipPath>
</defs>
</svg>
